<svg width="941" height="290" viewBox="0 0 941 290" fill="none" xmlns="http://www.w3.org/2000/svg">
<path d="M412.583 149H395.101V56.5893L395.376 50.6252H436.028C442.792 50.6252 448.939 52.2933 454.469 55.6296C459.999 58.9202 464.409 63.3305 467.7 68.8605C471.036 74.3905 472.704 80.5375 472.704 87.3015C472.704 97.0819 469.117 105.697 461.941 113.146C454.492 120.322 445.854 123.909 436.028 123.909H412.583V149ZM433.354 106.428C439.387 106.428 444.529 104.554 448.779 100.807C453.075 97.059 455.223 92.5573 455.223 87.3015C455.223 81.9543 453.075 77.4297 448.779 73.7278C444.529 69.9802 439.387 68.1064 433.354 68.1064H412.583V106.428H433.354ZM553.872 149H484.907V50.6252H502.32V131.587H553.872V149ZM603.094 149H597.815C590.594 149 584.013 147.24 578.072 143.721C572.13 140.202 567.377 135.472 563.812 129.531C560.293 123.589 558.534 117.008 558.534 109.787V50.6252H576.015V106.634C576.015 111.25 577.02 115.454 579.031 119.248C581.042 122.995 583.716 125.989 587.052 128.228C590.389 130.468 594.113 131.587 598.226 131.587H602.682C606.796 131.587 610.52 130.468 613.857 128.228C617.193 125.989 619.867 122.995 621.878 119.248C623.889 115.454 624.894 111.25 624.894 106.634V50.6252H642.307V109.787C642.307 117.008 640.547 123.589 637.028 129.531C633.509 135.472 628.779 140.202 622.837 143.721C616.896 147.24 610.315 149 603.094 149ZM742.464 149H724.983V100.258L703.8 145.024H693.174L671.922 100.327V149H654.509V50.6252H667.397L698.452 116.505L729.576 50.6252H742.464V149ZM441.855 259H395.101V160.625H440.073C445.054 160.625 449.579 161.836 453.646 164.259C457.714 166.681 460.959 169.926 463.381 173.993C465.803 178.061 467.014 182.562 467.014 187.498C467.014 193.44 465.163 198.901 461.461 203.883C465.072 206.853 467.883 210.441 469.894 214.646C471.905 218.85 472.91 223.306 472.91 228.014C472.91 236.286 469.871 243.598 463.792 249.951C457.44 255.984 450.127 259 441.855 259ZM438.427 196.959C441.444 196.959 444.026 196.045 446.174 194.217C448.322 192.343 449.396 190.103 449.396 187.498C449.396 184.893 448.322 182.677 446.174 180.849C444.026 179.02 441.444 178.106 438.427 178.106H412.583V196.959H438.427ZM438.702 241.587C443.318 241.587 447.248 240.262 450.493 237.611C453.783 234.96 455.429 231.761 455.429 228.014C455.429 224.266 453.783 221.067 450.493 218.416C447.248 215.765 443.318 214.44 438.702 214.44H412.583V241.587H438.702ZM528.644 259H523.366C516.145 259 509.563 257.24 503.622 253.721C497.681 250.202 492.928 245.472 489.363 239.531C485.844 233.589 484.084 227.008 484.084 219.787V160.625H501.565V216.634C501.565 221.25 502.571 225.454 504.582 229.248C506.593 232.995 509.266 235.989 512.603 238.228C515.939 240.468 519.664 241.587 523.777 241.587H528.233C532.346 241.587 536.071 240.468 539.407 238.228C542.744 235.989 545.417 232.995 547.428 229.248C549.439 225.454 550.444 221.25 550.444 216.634V160.625H567.857V219.787C567.857 227.008 566.098 233.589 562.578 239.531C559.059 245.472 554.329 250.202 548.388 253.721C542.446 257.24 535.865 259 528.644 259ZM629.213 259C620.164 259 611.914 256.806 604.465 252.419C597.061 247.986 591.143 242.044 586.709 234.595C582.276 227.145 580.06 218.896 580.06 209.847C580.06 200.798 582.276 192.548 586.709 185.099C591.143 177.649 597.061 171.708 604.465 167.275C611.914 162.842 620.164 160.625 629.213 160.625C635.885 160.625 642.238 161.905 648.271 164.464C654.304 166.978 659.674 170.634 664.381 175.433L668.22 179.34L657.046 193.6L652.11 188.321C645.62 181.74 637.988 178.449 629.213 178.449C623.454 178.449 618.199 179.866 613.445 182.7C608.692 185.533 604.899 189.326 602.066 194.079C599.278 198.833 597.884 204.088 597.884 209.847C597.884 215.605 599.278 220.861 602.066 225.614C604.899 230.367 608.692 234.161 613.445 236.994C618.199 239.828 623.454 241.245 629.213 241.245C633.692 241.245 637.942 240.353 641.964 238.571C646.031 236.743 649.573 234.161 652.59 230.824L657.663 225.203L668.631 239.805C665.341 243.37 662.324 246.318 659.582 248.648C656.84 250.933 653.344 253.013 649.093 254.887C642.741 257.629 636.114 259 629.213 259ZM765.224 259H741.778L708.393 223.215L696.944 236.994V259H679.463V160.625H696.944V209.436L737.871 160.625H760.562L719.635 209.778L765.224 259ZM843.924 259H774.753V160.625H843.924V178.106H792.234V201.141H838.097V218.553H792.234V241.587H843.924V259ZM903.771 259H886.359V178.106H856.195V160.625H933.935V178.106H903.771V259Z" fill="white"/>
<circle cx="275.361" cy="112.64" r="77.824" fill="#7D6599"/>
<g filter="url(#filter0_d_66_24)">
<circle cx="125.856" cy="164.864" r="121.856" fill="#7D6599"/>
</g>
<path d="M176.639 30.5618C183.273 24.4343 194.029 27.3164 196.711 35.9399L203.372 57.3628C204.034 59.4914 205.262 61.3998 206.926 62.8837L222.013 76.3431C229.544 83.0615 226.213 95.4909 216.332 97.5437L196.537 101.656C194.354 102.11 192.336 103.148 190.699 104.661L174.218 119.883C167.584 126.01 156.828 123.128 154.147 114.505L147.485 93.0818C146.824 90.9533 145.595 89.0449 143.932 87.561L128.845 74.1015C121.314 67.3832 124.644 54.9538 134.525 52.9009L154.321 48.7883C156.503 48.3348 158.521 47.2963 160.159 45.7839L176.639 30.5618Z" fill="#4FBA6F"/>
<path d="M332.246 107.346C340.233 103.078 349.935 108.622 350.314 117.669L350.631 125.238C350.724 127.467 351.422 129.627 352.65 131.489L355.19 135.341C360.733 143.746 354.368 154.885 344.313 154.378L339.705 154.145C337.478 154.033 335.262 154.529 333.295 155.58L326.613 159.15C318.626 163.418 308.924 157.874 308.545 148.826L308.228 141.257C308.135 139.029 307.437 136.868 306.209 135.007L303.669 131.155C298.126 122.75 304.491 111.611 314.546 112.118L319.154 112.35C321.381 112.463 323.597 111.967 325.564 110.916L332.246 107.346Z" fill="#4FBA6F"/>
<defs>
<filter id="filter0_d_66_24" x="0.928" y="39.9358" width="249.856" height="249.856" filterUnits="userSpaceOnUse" color-interpolation-filters="sRGB">
<feFlood flood-opacity="0" result="BackgroundImageFix"/>
<feColorMatrix in="SourceAlpha" type="matrix" values="0 0 0 0 0 0 0 0 0 0 0 0 0 0 0 0 0 0 127 0" result="hardAlpha"/>
<feMorphology radius="1.024" operator="dilate" in="SourceAlpha" result="effect1_dropShadow_66_24"/>
<feOffset/>
<feGaussianBlur stdDeviation="1.024"/>
<feComposite in2="hardAlpha" operator="out"/>
<feColorMatrix type="matrix" values="0 0 0 0 0.364706 0 0 0 0 0.298039 0 0 0 0 0.447059 0 0 0 1 0"/>
<feBlend mode="normal" in2="BackgroundImageFix" result="effect1_dropShadow_66_24"/>
<feBlend mode="normal" in="SourceGraphic" in2="effect1_dropShadow_66_24" result="shape"/>
</filter>
</defs>
</svg>
