<svg width="401" height="401" viewBox="0 0 401 401" fill="none" xmlns="http://www.w3.org/2000/svg">
<path d="M180.005 14.3345C187.924 -4.23847 213.142 -4.23845 221.061 14.3345L262.064 110.497C265.331 118.157 272.255 123.416 280.233 124.297L380.388 135.347C399.732 137.482 407.525 162.554 393.075 176.167L318.262 246.649C312.302 252.264 309.657 260.774 311.322 268.978L332.218 371.97C336.254 391.862 315.852 407.357 299.003 397.198L211.762 344.596C204.813 340.406 196.254 340.406 189.304 344.596L102.064 397.198C85.2141 407.357 64.8126 391.862 68.8485 371.97L89.7446 268.978C91.4092 260.774 88.7643 252.264 82.8046 246.649L7.99111 176.167C-6.45854 162.554 1.33415 137.482 20.6782 135.347L120.833 124.297C128.811 123.416 135.736 118.157 139.002 110.497L180.005 14.3345Z" fill="#FFC107"/>
</svg>
